<?xml version="1.0" encoding="UTF-8"?>
<!DOCTYPE svg PUBLIC "-//W3C//DTD SVG 1.1//EN" "http://www.w3.org/Graphics/SVG/1.1/DTD/svg11.dtd">
<!-- Creator: CorelDRAW (Versão de avaliação) -->
<svg xmlns="http://www.w3.org/2000/svg" xml:space="preserve" width="500mm" height="250mm" version="1.1" style="shape-rendering:geometricPrecision; text-rendering:geometricPrecision; image-rendering:optimizeQuality; fill-rule:evenodd; clip-rule:evenodd"
viewBox="0 0 50000 25000"
 xmlns:xlink="http://www.w3.org/1999/xlink"
 xmlns:xodm="http://www.corel.com/coreldraw/odm/2003">
 <defs>
  <style type="text/css">
   <![CDATA[
    .fil1 {fill:#FFFFFF;fill-rule:nonzero}
    .fil2 {fill:#1D86C8;fill-rule:nonzero}
    .fil0 {fill:url(#id0)}
   ]]>
  </style>
  <linearGradient id="id0" gradientUnits="userSpaceOnUse" x1="10446.7" y1="19295.47" x2="10163.8" y2="3455.41">
   <stop offset="0" style="stop-opacity:1; stop-color:#0C5393"/>
   <stop offset="0.321569" style="stop-opacity:1; stop-color:#146CAD"/>
   <stop offset="1" style="stop-opacity:1; stop-color:#1D86C8"/>
  </linearGradient>
 </defs>
 <g id="Camada_x0020_1">
  <metadata id="CorelCorpID_0Corel-Layer"/>
  <g id="_2389754417952">
   <path class="fil0" d="M5907.14 8678.46l888.72 0c308.42,0 329.41,55.57 611.06,55.57 479.66,-999.72 377.9,-890.09 1131.99,-1596.81 936.34,-877.63 2747.95,-933.2 3844.58,-269.25l591.97 463.25c304.94,315.05 602.73,644.66 789.25,1052.34l32.08 78.99c0.73,1.77 38.19,108.38 42.06,119.54 106.87,307.63 141.64,489.16 195.77,861.68 132.13,910.69 -186.65,1151.14 -239.79,1789.9 767.08,-368.13 1993.4,-103.66 2673.49,273.64l757.5 579.44c324.03,336.7 500.65,577.02 678.9,987.52 507.8,1169.19 394.5,2477.85 -371.73,3458.02 -40.94,52.36 -51.96,68.3 -94.67,122.03 -311.31,392.14 -749.17,751.53 -1221.15,945.14 -877.82,360.05 -1976.21,400.66 -2868.08,-23.88l-183.57 -99.26c-906.49,-540.67 -1530.61,-1330.19 -1713.46,-2400.31 -109.96,-643.93 -0.2,-996.57 -222.93,-1887.84 -205.88,-823.77 -634.55,-1490.92 -1197.59,-2072.53 -899.41,-1054.05 -2531,-1627.26 -3802.2,-1493.35 -2470.57,260.26 -4619.33,2589.64 -4485.82,5141.17 159.75,3051.72 3128.74,5678.1 6656.17,4239.73 386.95,-157.85 726.66,-364.12 1055.03,-611.39 131.02,-98.74 221.42,-190.46 340.7,-270.3l-1041.85 -1068.94c-328.1,224.18 -559.43,422.12 -948.87,578 -864.11,345.81 -1831.95,312.94 -2708.66,-25.98 -1223.37,-472.96 -2021.81,-1881.88 -2021.81,-3149.21 0,-3251.75 4211.52,-4614.61 6159,-1993.21 884.38,1190.44 473.48,2102.45 852.37,3320.57l38.44 129.45c127.61,459.9 325.74,898.88 592.11,1288.59 292.28,427.49 622.8,757.89 1010.21,1100.23 113.05,99.92 180.88,133.05 298.91,209.55 10.17,6.62 23.82,15.55 33.79,22.17l96.38 66.86c66.19,46.31 101.56,73.74 161.59,110.35 2417.23,1473.34 5608.75,418.51 6875.62,-1975.57l317.15 -834.12c123.6,-395.75 131.15,-569.87 182.45,-1046.7 79.78,-741.43 -85.48,-1479.77 -251.54,-1983.9 -150.43,-456.62 -358.01,-828.94 -601.94,-1181.91 -645.05,-933.19 -1652.25,-1676.85 -2777.09,-1943.87l-489.36 -121.11c-25.59,-1071.3 -469.81,-2180.13 -1153.96,-2956.59l-725.36 -715.64c-289.98,-245.44 -591.64,-386.76 -934.64,-559.7 -1142.02,-575.7 -2784.36,-653.77 -3982.09,-120.38 -405.51,180.61 -810.97,391.21 -1154.88,681.72l-60.75 54.19c-411.16,352.51 -756.06,704.82 -1054.63,1161.77 -177.08,271.02 -590.08,1115.85 -598.87,1510.34z"/>
   <path class="fil1" d="M23821.04 12769.66l-160.54 -653.91 -35.36 0c-94.21,129.58 -188.49,241.5 -282.77,334.34 -95.72,94.21 -198.79,170.84 -310.78,231.2 -111.93,60.36 -237.1,104.57 -374.09,134.03 -138.43,27.95 -297.47,42.71 -478.61,42.71 -197.34,0 -379.99,-28.01 -546.44,-83.97 -166.44,-55.97 -310.71,-142.83 -433.01,-260.66 -120.78,-116.39 -216.5,-263.61 -285.71,-440.36 -69.22,-178.25 -103.07,-387.34 -103.07,-630.35 0,-472.77 166.44,-836.56 497.76,-1089.87 331.38,-254.81 835.11,-393.25 1512.57,-415.36l792.4 -30.9 0 -296.02c0,-192.95 -22.11,-352.04 -63.37,-481.62 -41.2,-128.13 -101.63,-232.71 -181.14,-310.78 -78.08,-79.51 -175.24,-135.48 -291.63,-170.84 -116.32,-33.85 -248.85,-51.57 -399.09,-51.57 -237.1,0 -459.51,35.37 -664.27,104.58 -204.69,69.22 -402.04,151.75 -592.04,250.42l-275.42 -592.1c212.11,-114.88 449.22,-212.04 711.38,-293.07 262.17,-81.02 536.08,-120.78 823.31,-120.78 294.51,0 547.88,29.46 761.43,88.37 215,58.92 391.74,153.19 530.17,279.82 139.94,128.13 244.52,291.62 313.74,490.48 69.21,198.79 103.07,438.84 103.07,720.16l0 3246.05 -568.49 0zm-1440.4 -562.58c175.3,0 337.28,-28.02 486.01,-82.54 150.24,-54.45 279.82,-136.92 388.86,-245.89 108.97,-110.48 194.39,-250.42 256.26,-416.8 61.87,-167.96 92.77,-365.3 92.77,-590.6l0 -425.66 -617.1 30.9c-257.77,10.37 -474.28,39.83 -649.51,85.42 -175.24,45.67 -316.62,109.04 -421.2,191.51 -104.58,80.96 -179.7,179.7 -225.36,296.02 -47.11,116.32 -69.22,245.96 -69.22,393.25 0,262.17 69.22,456.56 209.16,578.79 138.43,123.73 322.52,185.6 549.33,185.6zm4897.04 0c51.57,0 110.49,-2.95 175.24,-8.86 64.82,-5.9 128.13,-13.25 188.55,-22.11 60.36,-8.86 116.33,-19.16 166.38,-29.46 50.13,-11.74 88.38,-22.11 114.88,-30.9l0 602.34c-36.8,17.72 -85.42,35.36 -142.82,53.01 -57.48,17.72 -120.79,32.41 -190,45.67 -67.77,13.25 -139.94,23.61 -215,30.96 -75.12,7.35 -148.79,10.3 -219.45,10.3 -178.26,0 -344.64,-23.55 -496.39,-69.21 -153.12,-47.17 -284.21,-126.69 -394.69,-238.62 -110.42,-113.37 -198.79,-266.56 -262.17,-458 -63.31,-192.95 -94.21,-435.96 -94.21,-727.58l0 -2765.93 -671.62 0 0 -337.23 671.62 -322.59 334.34 -992.63 450.65 0 0 1086.91 1195.89 0 0 565.54 -1195.89 0 0 2761.53c0,281.26 45.67,491.86 136.99,633.31 91.26,141.38 240.06,213.55 447.7,213.55zm4524.4 562.58l0 -3051.65c0,-374.09 -76.56,-653.91 -226.8,-840.95 -151.69,-187.05 -387.35,-281.33 -709.87,-281.33 -234.22,0 -430.06,38.32 -587.64,113.44 -159.1,73.61 -285.72,185.6 -382.95,331.38 -95.72,147.29 -164.94,326.99 -206.21,539.03 -42.71,213.55 -63.31,458.07 -63.31,734.93l0 2455.15 -784.99 0 0 -6715.94 784.99 0 0 1994.19 -33.85 621.5 42.71 0c72.17,-123.74 157.59,-231.27 257.71,-321.08 98.67,-91.33 207.64,-166.45 325.47,-226.81 117.83,-60.35 243.01,-104.57 375.6,-134.03 132.53,-27.95 268.01,-42.71 405,-42.71 527.28,0 923.42,136.99 1190.04,412.41 266.57,273.91 399.09,714.26 399.09,1318.11l0 3094.36 -784.99 0zm4113.5 88.37c-316.62,0 -605.29,-53.01 -867.45,-159.09 -262.17,-107.47 -487.53,-262.11 -676.02,-466.87 -188.55,-204.69 -334.33,-458 -437.4,-759.92 -104.58,-301.93 -156.15,-648.07 -156.15,-1036.86 0,-390.3 47.11,-740.83 142.9,-1048.66 94.21,-307.77 228.24,-568.49 400.59,-783.48 173.8,-215.06 379.93,-377.05 620.06,-490.48 240.05,-111.93 506.61,-167.89 796.73,-167.89 285.72,0 541.98,51.57 768.78,154.64 226.87,101.62 419.76,247.47 578.85,433 157.59,187.05 279.82,410.9 365.24,673.07 83.98,262.16 126.69,552.28 126.69,870.41l0 490.47 -2988.34 0c14.76,550.84 131.08,955.84 352.05,1216.49 219.39,259.22 547.82,388.86 982.33,388.86 147.29,0 282.77,-7.35 407.95,-20.6 125.17,-14.77 245.96,-35.37 362.28,-63.38 117.83,-27.95 229.76,-61.87 340.24,-103.07 108.97,-42.71 219.45,-88.37 331.38,-141.38l0 699.57c-114.88,54.52 -226.8,101.62 -338.73,142.82 -110.48,39.83 -223.85,73.68 -340.24,98.68 -116.32,26.57 -238.61,44.21 -363.79,56.02 -125.18,11.75 -260.66,17.65 -407.95,17.65zm-175.23 -4262.3c-334.34,0 -597.95,113.44 -792.41,337.29 -195.83,225.36 -309.27,552.28 -340.17,982.34l2159.07 0c0,-195.84 -19.09,-375.54 -58.92,-539.03 -39.76,-161.99 -101.56,-301.93 -184.09,-416.81 -83.91,-114.87 -190,-204.69 -318.13,-268 -129.58,-63.38 -284.21,-95.79 -465.35,-95.79zm5994.26 4173.93l0 -3051.65c0,-374.09 -76.56,-653.91 -226.8,-840.95 -151.69,-187.05 -387.35,-281.33 -709.87,-281.33 -234.22,0 -430.06,38.32 -587.65,113.44 -159.09,73.61 -285.72,185.6 -382.95,331.38 -95.72,147.29 -164.93,326.99 -206.2,539.03 -42.71,213.55 -63.31,458.07 -63.31,734.93l0 2455.15 -784.99 0 0 -4736.51 639.21 0 111.93 636.26 42.71 0c72.16,-123.74 157.59,-231.27 257.7,-321.08 98.67,-91.33 207.65,-166.45 325.48,-226.81 117.83,-60.35 243.01,-104.57 375.6,-134.03 132.53,-27.95 268,-42.71 404.99,-42.71 527.29,0 923.42,136.99 1190.05,412.41 266.56,273.91 399.09,714.26 399.09,1318.11l0 3094.36 -784.99 0zm4907.35 0l-160.54 -653.91 -35.37 0c-94.21,129.58 -188.48,241.5 -282.76,334.34 -95.72,94.21 -198.79,170.84 -310.78,231.2 -111.93,60.36 -237.11,104.57 -374.1,134.03 -138.43,27.95 -297.46,42.71 -478.6,42.71 -197.35,0 -380,-28.01 -546.44,-83.97 -166.45,-55.97 -310.72,-142.83 -433.01,-260.66 -120.78,-116.39 -216.5,-263.61 -285.72,-440.36 -69.21,-178.25 -103.07,-387.34 -103.07,-630.35 0,-472.77 166.45,-836.56 497.77,-1089.87 331.38,-254.81 835.11,-393.25 1512.57,-415.36l792.4 -30.9 0 -296.02c0,-192.95 -22.11,-352.04 -63.38,-481.62 -41.2,-128.13 -101.62,-232.71 -181.14,-310.78 -78.07,-79.51 -175.23,-135.48 -291.62,-170.84 -116.32,-33.85 -248.85,-51.57 -399.09,-51.57 -237.1,0 -459.51,35.37 -664.27,104.58 -204.7,69.22 -402.04,151.75 -592.04,250.42l-275.42 -592.1c212.11,-114.88 449.21,-212.04 711.38,-293.07 262.17,-81.02 536.08,-120.78 823.3,-120.78 294.51,0 547.89,29.46 761.44,88.37 214.99,58.92 391.74,153.19 530.17,279.82 139.94,128.13 244.52,291.62 313.73,490.48 69.22,198.79 103.07,438.84 103.07,720.16l0 3246.05 -568.48 0zm-1440.41 -562.58c175.3,0 337.29,-28.02 486.02,-82.54 150.24,-54.45 279.81,-136.92 388.85,-245.89 108.98,-110.48 194.4,-250.42 256.27,-416.8 61.86,-167.96 92.76,-365.3 92.76,-590.6l0 -425.66 -617.1 30.9c-257.77,10.37 -474.27,39.83 -649.51,85.42 -175.23,45.67 -316.62,109.04 -421.2,191.51 -104.57,80.96 -179.69,179.7 -225.36,296.02 -47.1,116.32 -69.21,245.96 -69.21,393.25 0,262.17 69.21,456.56 209.15,578.79 138.44,123.73 322.53,185.6 549.33,185.6z"/>
   <path class="fil2" d="M38167.75 16269.41c-160.28,0 -305.41,-21.92 -434.13,-66.4 -128.72,-43.82 -239,-112.32 -330.72,-205.41 -91.79,-93.17 -161.59,-212.31 -210.21,-357.43 -48.61,-145.19 -73.28,-318.39 -73.28,-520.4 0,-223.19 25.32,-410.17 75.32,-560.81 49.99,-150.63 120.52,-271.15 212.24,-362.21 91.78,-91.07 202,-155.43 330.72,-194.46 128.72,-38.97 272.53,-58.2 430.06,-58.2 115.01,0 229.36,13.71 342.33,41.79 113.64,28.08 220.44,67.12 321.15,117.77l-176.68 464.24c-87.65,-39.04 -172.55,-70.53 -254.03,-95.2 -81.48,-24.6 -158.83,-36.94 -232.77,-36.94 -147.95,0 -255.41,56.82 -322.53,169.79 -66.39,113.7 -99.98,284.15 -99.98,511.48 0,225.29 33.59,392.33 99.98,499.86 67.12,107.53 171.83,160.93 314.98,160.93 115.73,0 221.16,-15.09 316.29,-45.2 94.54,-30.11 191.77,-68.49 290.38,-115.08l0 506.75c-49.34,23.95 -97.23,45.14 -144.53,63.64 -46.52,18.5 -93.75,33.59 -140.99,45.86 -47.3,11.68 -97.23,20.6 -148.6,26.77 -51.37,6.1 -106.15,8.86 -165,8.86zm1728.88 -41.07l-612.18 0 0 -3122.31 612.18 0 0 3122.31zm615.59 -2823.8c0,-56.82 8.85,-104.77 25.98,-143.09 17.12,-38.38 41.13,-69.15 71.25,-92.44 30.11,-23.29 65.74,-39.69 106.08,-48.61 41.14,-9.58 84.24,-14.37 129.45,-14.37 45.86,0 88.3,4.79 128.72,14.37 39.69,8.92 75.31,25.32 105.43,48.61 30.18,23.29 54.12,54.06 71.9,92.44 17.85,38.32 27.43,86.27 27.43,143.09 0,56.82 -9.58,104.12 -27.43,143.09 -17.78,38.38 -41.72,69.87 -71.9,93.16 -30.12,23.29 -65.74,39.69 -105.43,49.99 -40.42,10.24 -82.86,15.03 -128.72,15.03 -45.21,0 -88.31,-4.79 -129.45,-15.03 -40.34,-10.3 -75.97,-26.7 -106.08,-49.99 -30.12,-23.29 -54.13,-54.78 -71.25,-93.16 -17.13,-38.97 -25.98,-86.27 -25.98,-143.09zm638.16 2823.8l-612.18 0 0 -2243.18 612.18 0 0 2243.18zm2588.92 0l-612.11 0 0 -1307.82c0,-161.59 -23.95,-282.76 -73.29,-363.59 -48.61,-80.76 -126.68,-121.18 -234.15,-121.18 -80.11,0 -147.22,15.75 -200.63,47.9 -54.12,32.21 -96.57,79.45 -128.06,142.43 -31.49,62.33 -54.06,139.68 -67.12,232.12 -13.64,92.44 -19.81,197.87 -19.81,316.36l0 1053.78 -612.18 0 0 -2243.18 467.71 0 82.14 289.66 34.25 0c32.15,-57.47 71.18,-107.47 117.11,-149.26 46.51,-41.79 96.51,-75.97 151.95,-102.74 54.78,-26.7 112.97,-46.51 174.64,-59.5 61.61,-13.06 124.59,-19.23 188.29,-19.23 110.22,0 209.55,15.75 299.24,47.24 89.68,31.49 167.03,80.11 231.39,147.22 64.36,67.12 113.7,152.01 148.6,256.13 34.91,103.4 52.03,227.33 52.03,371.8l0 1461.86zm602.6 -2823.8c0,-56.82 8.86,-104.77 25.98,-143.09 17.13,-38.38 41.14,-69.15 71.25,-92.44 30.12,-23.29 65.74,-39.69 106.09,-48.61 41.13,-9.58 84.24,-14.37 129.44,-14.37 45.86,0 88.31,4.79 128.72,14.37 39.7,8.92 75.32,25.32 105.43,48.61 30.18,23.29 54.13,54.06 71.91,92.44 17.84,38.32 27.42,86.27 27.42,143.09 0,56.82 -9.58,104.12 -27.42,143.09 -17.78,38.38 -41.73,69.87 -71.91,93.16 -30.11,23.29 -65.73,39.69 -105.43,49.99 -40.41,10.24 -82.86,15.03 -128.72,15.03 -45.2,0 -88.31,-4.79 -129.44,-15.03 -40.35,-10.3 -75.97,-26.7 -106.09,-49.99 -30.11,-23.29 -54.12,-54.78 -71.25,-93.16 -17.12,-38.97 -25.98,-86.27 -25.98,-143.09zm638.16 2823.8l-612.18 0 0 -2243.18 612.18 0 0 2243.18zm1574.9 41.07c-160.28,0 -305.4,-21.92 -434.12,-66.4 -128.72,-43.82 -239.01,-112.32 -330.73,-205.41 -91.78,-93.17 -161.59,-212.31 -210.2,-357.43 -48.62,-145.19 -73.28,-318.39 -73.28,-520.4 0,-223.19 25.32,-410.17 75.31,-560.81 50,-150.63 120.52,-271.15 212.24,-362.21 91.79,-91.07 202.01,-155.43 330.73,-194.46 128.72,-38.97 272.53,-58.2 430.05,-58.2 115.01,0 229.36,13.71 342.34,41.79 113.63,28.08 220.44,67.12 321.15,117.77l-176.68 464.24c-87.65,-39.04 -172.55,-70.53 -254.03,-95.2 -81.49,-24.6 -158.84,-36.94 -232.78,-36.94 -147.94,0 -255.41,56.82 -322.52,169.79 -66.4,113.7 -99.99,284.15 -99.99,511.48 0,225.29 33.59,392.33 99.99,499.86 67.11,107.53 171.82,160.93 314.98,160.93 115.73,0 221.16,-15.09 316.29,-45.2 94.54,-30.11 191.77,-68.49 290.38,-115.08l0 506.75c-49.34,23.95 -97.23,45.14 -144.54,63.64 -46.51,18.5 -93.75,33.59 -140.99,45.86 -47.3,11.68 -97.23,20.6 -148.6,26.77 -51.37,6.1 -106.15,8.86 -165,8.86z"/>
  </g>
 </g>
</svg>
