<?xml version="1.0" encoding="UTF-8"?>
<svg width="5149px" height="991px" viewBox="0 0 5149 991" version="1.1" xmlns="http://www.w3.org/2000/svg" xmlns:xlink="http://www.w3.org/1999/xlink">
    <title>Group 2</title>
    <g id="Page-1" stroke="none" stroke-width="1" fill="none" fill-rule="evenodd">
        <g id="Group-2" transform="translate(-0.004544, 0.981907)">
            <g id="Group">
                <path d="M952.604544,218.718093 C958.444544,234.228093 970.134544,213.738093 919.734544,261.168093 L601.064544,578.798093 C573.384544,605.768093 250.564544,916.158093 240.594544,947.078093 C289.264544,962.498093 828.194544,952.078093 928.734544,951.988093 C1156.88454,951.808093 1389.71454,947.868093 1615.47454,948.418093 L935.804544,949.878093 C948.814544,917.898093 1053.76454,823.228093 1083.09454,793.978093 C1142.65454,734.628093 1179.50454,697.648093 1235.78454,641.048093 C1264.20454,612.468093 1280.84454,598.108093 1310.80454,566.868093 C1333.37454,543.328093 1361.65454,513.178093 1389.60454,489.858093 C1483.60454,411.418093 1556.48454,436.248093 1627.43454,433.638093 C1645.70454,311.038093 1657.79454,263.538093 1598.16454,159.808093 C1506.89454,1.07809264 1288.30454,-49.7419074 1135.23454,54.5080926 C1077.92454,93.5380926 992.724544,205.368093 952.584544,218.698093 L952.604544,218.718093 Z" id="Path" fill="#01ACFE"></path>
                <path d="M1615.48454,948.428093 C1876.73454,871.788093 1871.79454,577.308093 1702.81454,470.958093 C1682.19454,457.978093 1642.56454,446.358093 1627.44454,433.668093 C1556.48454,436.268093 1483.60454,411.438093 1389.61454,489.888093 C1361.65454,513.208093 1333.38454,543.358093 1310.81454,566.898093 C1280.86454,598.138093 1264.21454,612.498093 1235.79454,641.078093 C1179.51454,697.668093 1142.66454,734.658093 1083.10454,794.008093 C1053.76454,823.248093 948.824544,917.928093 935.814544,949.908093 L1615.48454,948.448093 L1615.48454,948.428093 Z" id="Path" fill="#01E5FF"></path>
                <path d="M394.334544,393.688093 L405.544544,404.778093 C378.204544,420.538093 166.834544,636.698093 120.884544,683.508093 C103.944544,700.758093 45.3845438,763.758093 25.2945438,774.418093 C54.2945438,851.698093 137.624544,935.308093 240.604544,947.088093 C250.574544,916.168093 573.384544,605.778093 601.074544,578.808093 L919.744544,261.178093 C970.144544,213.748093 958.444544,234.238093 952.614544,218.728093 C868.954544,144.028093 749.344544,111.848093 629.024544,184.838093 C550.084544,232.728093 439.624544,389.958093 394.344544,393.688093 L394.334544,393.688093 Z" id="Path" fill="#055DDE"></path>
                <path d="M25.2945438,774.418093 C45.3845438,763.758093 103.944544,700.758093 120.884544,683.508093 C166.844544,636.688093 378.204544,420.538093 405.544544,404.778093 L394.334544,393.688093 C151.234544,308.178093 -77.6354562,550.048093 25.2845438,774.428093 L25.2945438,774.418093 Z" id="Path" fill="#01258D"></path>
            </g>
            <g id="cloudmed-logo-dark" transform="translate(1889.224544, 89.078093)">
                <path d="M285.78,494.28 C285.78,498.81 285.65,502.79 285.37,506.08 C285.1,509.51 284.69,512.26 284,514.59 C283.31,516.92 282.49,518.84 281.53,520.63 C280.57,522.42 278.51,525.02 275.08,528.32 C271.79,531.75 266.02,535.87 258.06,540.95 C249.96,545.89 240.9,550.42 230.88,554.26 C220.72,558.24 209.88,561.4 198.07,563.73 C186.27,566.2 174.05,567.44 161.42,567.44 C135.34,567.44 112.28,563.19 92.24,554.54 C72.06,546.03 55.18,533.54 41.73,517.07 C28.14,500.59 17.85,480.28 10.71,456.4 C3.57,432.38 4.54747351e-13,404.79 4.54747351e-13,373.35 C4.54747351e-13,337.8 4.39,307.19 13.04,281.52 C21.83,255.99 33.77,234.99 48.86,218.66 C64.1,202.32 81.94,190.25 102.4,182.28 C122.99,174.46 145.23,170.48 169.11,170.48 C180.64,170.48 191.76,171.58 202.6,173.78 C213.58,175.84 223.46,178.72 232.66,182.15 C241.72,185.72 249.96,189.7 256.96,194.37 C264.1,198.9 269.31,202.88 272.47,206.03 C275.76,209.33 277.96,211.93 279.19,213.72 C280.29,215.64 281.39,217.84 282.21,220.44 C282.89,222.91 283.45,225.79 283.72,229.09 C283.99,232.25 284.13,236.37 284.13,241.17 C284.13,251.6 282.89,258.88 280.56,263.13 C278.09,267.25 275.21,269.31 271.63,269.31 C267.65,269.31 262.98,267.11 257.77,262.58 C252.56,258.19 245.97,253.25 237.87,247.89 C229.77,242.54 220.02,237.6 208.63,233.2 C197.24,228.67 183.79,226.48 168.28,226.48 C136.3,226.48 111.73,238.7 94.7,263.27 C77.68,287.7 69.17,323.26 69.17,369.79 C69.17,392.98 71.37,413.44 75.76,431.01 C80.29,448.45 86.74,463.13 95.39,474.94 C103.9,486.6 114.47,495.39 126.96,501.16 C139.45,506.92 153.73,509.81 169.79,509.81 C185.16,509.81 198.61,507.34 210.15,502.53 C221.68,497.73 231.56,492.37 240.07,486.47 C248.58,480.7 255.71,475.49 261.48,470.82 C267.25,466.01 271.64,463.68 274.93,463.68 C276.71,463.68 278.36,464.23 279.74,465.32 C281.11,466.42 282.21,468.2 283.17,470.67 C284.13,473.28 284.81,476.44 285.23,480.42 C285.64,484.26 285.78,488.93 285.78,494.29 L285.78,494.28 Z" id="Path" fill="#FEFEFE" fill-rule="nonzero"></path>
                <path d="M440.48,550.01 C440.48,552.21 439.93,553.99 438.84,555.5 C437.74,556.87 436.09,558.24 433.62,559.34 C431.15,560.3 427.86,561.12 423.46,561.68 C419.2,562.23 413.71,562.5 406.99,562.5 C400.4,562.5 395.05,562.23 390.79,561.68 C386.4,561.13 382.97,560.31 380.5,559.34 C377.89,558.24 376.11,556.87 375.15,555.5 C374.19,553.99 373.78,552.2 373.78,550.01 L373.78,12.9 C373.78,10.7 374.19,8.78 375.15,7.27 C376.11,5.62 377.89,4.25 380.5,3.15 C382.97,2.19 386.4,1.37 390.79,0.82 C395.04,0.27 400.4,0 406.99,0 C413.71,0 419.2,0.27 423.46,0.82 C427.85,1.37 431.14,2.19 433.62,3.15 C436.09,4.25 437.74,5.62 438.84,7.27 C439.94,8.78 440.48,10.7 440.48,12.9 L440.48,550.01 Z" id="1" fill="#FEFEFE" fill-rule="nonzero"></path>
                <path d="M898.8,364.7 C898.8,394.21 894.96,421.39 887.14,446.24 C879.45,470.94 867.79,492.36 852.41,510.34 C837.04,528.32 817.68,542.32 794.62,552.35 C771.43,562.37 744.52,567.45 714.05,567.45 C684.27,567.45 658.32,563.06 636.22,554.14 C614.12,545.35 595.73,532.45 581.04,515.57 C566.35,498.69 555.37,478.1 548.09,454.08 C540.81,429.92 537.25,402.6 537.25,372 C537.25,342.49 541.09,315.31 548.64,290.6 C556.33,265.76 567.86,244.35 583.23,226.36 C598.6,208.38 617.82,194.51 640.88,184.49 C663.94,174.61 690.84,169.67 721.59,169.67 C751.38,169.67 777.32,174.06 799.42,182.98 C821.52,191.77 839.91,204.67 854.6,221.55 C869.29,238.43 880.4,258.88 887.82,283.04 C895.09,307.2 898.8,334.37 898.8,364.71 L898.8,364.7 Z M829.62,368.95 C829.62,349.32 827.84,330.79 824.13,313.36 C820.56,295.93 814.52,280.69 806.15,267.51 C797.92,254.34 786.52,243.9 772.25,236.35 C758.11,228.67 740.27,224.82 718.99,224.82 C699.36,224.82 682.48,228.25 668.34,235.25 C654.2,242.25 642.67,252.13 633.48,264.9 C624.28,277.67 617.56,292.76 613.16,310.19 C608.63,327.63 606.43,346.7 606.43,367.3 C606.43,387.2 608.21,405.87 611.92,423.3 C615.49,440.73 621.53,455.97 630.04,469.01 C638.55,481.91 649.94,492.34 664.08,499.89 C678.36,507.57 696.2,511.42 717.48,511.42 C736.83,511.42 753.58,507.99 767.86,500.99 C782.13,493.99 793.8,484.25 803,471.61 C812.2,458.98 818.92,443.88 823.18,426.45 C827.43,409.02 829.63,389.8 829.63,368.93 L829.62,368.95 Z" id="2" fill="#FEFEFE" fill-rule="nonzero"></path>
                <path d="M1306.75,550.01 C1306.75,552.21 1306.34,553.99 1305.38,555.5 C1304.42,556.87 1302.78,558.24 1300.3,559.34 C1297.97,560.3 1294.81,561.12 1290.83,561.68 C1286.99,562.23 1282.18,562.5 1276.56,562.5 C1270.52,562.5 1265.44,562.23 1261.6,561.68 C1257.62,561.13 1254.6,560.31 1252.26,559.34 C1250.06,558.24 1248.42,556.87 1247.73,555.5 C1246.91,553.99 1246.49,552.2 1246.49,550.01 L1246.49,502.11 C1225.76,524.9 1205.45,541.37 1185.27,551.8 C1165.23,562.23 1144.78,567.45 1124.19,567.45 C1100.03,567.45 1079.71,563.47 1063.24,555.37 C1046.77,547.41 1033.32,536.43 1023.16,522.56 C1013,508.83 1005.72,492.78 1001.2,474.38 C996.81,455.99 994.61,433.61 994.61,407.4 L994.61,187.91 C994.61,185.71 995.02,183.93 995.98,182.42 C996.94,181.05 998.72,179.68 1001.47,178.44 C1004.08,177.2 1007.65,176.38 1011.9,175.97 C1016.15,175.56 1021.51,175.42 1027.96,175.42 C1034.41,175.42 1039.76,175.56 1044.02,175.97 C1048.27,176.38 1051.7,177.21 1054.31,178.44 C1056.78,179.68 1058.56,181.04 1059.66,182.42 C1060.76,183.93 1061.3,185.71 1061.3,187.91 L1061.3,398.75 C1061.3,419.89 1062.81,436.91 1065.97,449.68 C1068.99,462.45 1073.66,473.29 1079.97,482.21 C1086.29,491.27 1094.38,498.27 1103.99,503.21 C1113.6,508.15 1124.86,510.62 1137.76,510.62 C1154.37,510.62 1170.98,504.72 1187.45,492.91 C1204.06,481.11 1221.49,463.81 1240.02,441.02 L1240.02,187.9 C1240.02,185.7 1240.43,183.92 1241.39,182.41 C1242.35,181.04 1244.13,179.67 1246.88,178.43 C1249.48,177.19 1252.92,176.37 1257.04,175.96 C1261.29,175.55 1266.65,175.41 1273.38,175.41 C1279.83,175.41 1285.18,175.55 1289.44,175.96 C1293.7,176.37 1297.13,177.2 1299.46,178.43 C1301.93,179.67 1303.71,181.03 1304.95,182.41 C1306.19,183.92 1306.73,185.7 1306.73,187.9 L1306.73,550 L1306.75,550.01 Z" id="3" fill="#FEFEFE" fill-rule="nonzero"></path>
                <path d="M1739.41,550.01 C1739.41,552.21 1739,553.99 1738.04,555.64 C1737.08,557.29 1735.44,558.52 1733.24,559.48 C1730.9,560.44 1727.89,561.12 1724.18,561.68 C1720.34,562.23 1715.8,562.5 1710.45,562.5 C1704.82,562.5 1700.16,562.23 1696.44,561.68 C1692.6,561.13 1689.58,560.44 1687.11,559.48 C1684.78,558.52 1683,557.28 1681.9,555.64 C1680.94,553.99 1680.39,552.07 1680.39,550.01 L1680.39,501.83 C1661.31,522.56 1641.54,538.62 1621.09,550.15 C1600.5,561.68 1578.13,567.44 1553.69,567.44 C1527.2,567.44 1504.55,562.23 1485.88,551.93 C1467.07,541.64 1451.84,527.64 1440.17,510.06 C1428.64,492.49 1420.13,471.9 1414.77,448.15 C1409.42,424.41 1406.67,399.43 1406.67,373.21 C1406.67,342.05 1409.96,313.91 1416.69,288.93 C1423.41,263.81 1433.3,242.4 1446.47,224.69 C1459.51,206.98 1475.85,193.39 1495.34,183.92 C1514.69,174.45 1537.07,169.65 1562.6,169.65 C1583.74,169.65 1603.1,174.32 1620.66,183.51 C1638.23,192.85 1655.53,206.44 1672.69,224.42 L1672.69,14.55 C1672.69,12.63 1673.1,10.84 1674.06,9.06 C1675.02,7.28 1676.8,6.04 1679.55,5.08 C1682.15,4.12 1685.59,3.3 1689.71,2.61 C1693.96,1.92 1699.18,1.65 1705.63,1.65 C1712.35,1.65 1717.85,1.92 1722.1,2.61 C1726.36,3.3 1729.79,4.12 1732.12,5.08 C1734.59,6.04 1736.37,7.28 1737.61,9.06 C1738.85,10.85 1739.39,12.63 1739.39,14.55 L1739.39,550.02 L1739.41,550.01 Z M1672.7,295.11 C1654.85,272.74 1637.56,255.71 1620.81,244.04 C1604.06,232.38 1586.63,226.47 1568.51,226.47 C1551.63,226.47 1537.35,230.45 1525.55,238.55 C1513.75,246.65 1504.27,257.22 1496.86,270.4 C1489.58,283.44 1484.23,298.4 1480.94,315.01 C1477.51,331.62 1475.86,348.5 1475.86,365.66 C1475.86,383.91 1477.23,401.76 1480.12,419.19 C1482.86,436.62 1487.8,452.14 1494.67,465.72 C1501.67,479.31 1510.87,490.15 1522.4,498.39 C1533.8,506.49 1548.34,510.61 1565.64,510.61 C1574.42,510.61 1582.93,509.37 1591.17,507.04 C1599.27,504.57 1607.64,500.59 1616.15,494.96 C1624.66,489.34 1633.72,482.06 1643.05,473 C1652.38,464.07 1662.26,453.1 1672.7,439.92 L1672.7,295.11 L1672.7,295.11 Z" id="4" fill="#FEFEFE" fill-rule="nonzero"></path>
                <path d="M2399.37,550.01 C2399.37,552.21 2398.82,553.99 2397.73,555.5 C2396.63,556.87 2394.99,558.24 2392.51,559.34 C2390.18,560.3 2386.75,561.12 2382.49,561.68 C2378.23,562.23 2372.88,562.5 2366.43,562.5 C2359.71,562.5 2354.21,562.23 2349.96,561.68 C2345.7,561.13 2342.27,560.31 2339.67,559.34 C2337.2,558.24 2335.41,556.87 2334.32,555.5 C2333.22,553.99 2332.67,552.2 2332.67,550.01 L2332.67,329.98 C2332.67,314.61 2331.3,300.6 2328.69,288.11 C2325.95,275.48 2321.69,264.64 2315.79,255.44 C2309.89,246.38 2302.48,239.38 2293.42,234.58 C2284.36,229.77 2273.65,227.3 2261.3,227.3 C2246.06,227.3 2230.69,233.2 2215.45,245.01 C2200.08,256.82 2183.06,274.11 2164.66,296.9 L2164.66,550.02 C2164.66,552.22 2164.11,554 2163.01,555.51 C2161.91,556.88 2160.13,558.25 2157.52,559.35 C2155.05,560.31 2151.62,561.13 2147.23,561.69 C2142.98,562.24 2137.62,562.51 2131.17,562.51 C2124.85,562.51 2119.64,562.24 2115.11,561.69 C2110.72,561.14 2107.15,560.32 2104.68,559.35 C2102.07,558.25 2100.29,556.88 2099.33,555.51 C2098.37,554 2097.96,552.21 2097.96,550.02 L2097.96,329.99 C2097.96,314.62 2096.45,300.61 2093.57,288.12 C2090.55,275.49 2086.16,264.65 2080.26,255.45 C2074.36,246.39 2066.95,239.39 2058.02,234.59 C2048.96,229.78 2038.39,227.31 2026.04,227.31 C2010.8,227.31 1995.29,233.21 1979.78,245.02 C1964.27,256.83 1947.39,274.12 1929.13,296.91 L1929.13,550.03 C1929.13,552.23 1928.58,554.01 1927.49,555.52 C1926.39,556.89 1924.74,558.26 1922.27,559.36 C1919.8,560.32 1916.51,561.14 1912.11,561.7 C1907.85,562.25 1902.36,562.52 1895.64,562.52 C1889.05,562.52 1883.7,562.25 1879.44,561.7 C1875.05,561.15 1871.62,560.33 1869.15,559.36 C1866.54,558.26 1864.76,556.89 1863.8,555.52 C1862.84,554.01 1862.43,552.22 1862.43,550.03 L1862.43,187.93 C1862.43,185.73 1862.84,183.95 1863.67,182.44 C1864.49,181.07 1866.01,179.7 1868.48,178.46 C1870.95,177.22 1873.97,176.4 1877.81,175.99 C1881.52,175.58 1886.6,175.44 1892.77,175.44 C1898.67,175.44 1903.61,175.58 1907.46,175.99 C1911.44,176.4 1914.46,177.23 1916.65,178.46 C1918.71,179.7 1920.36,181.06 1921.32,182.44 C1922.15,183.95 1922.69,185.73 1922.69,187.93 L1922.69,235.84 C1943.01,212.91 1962.91,196.17 1982.13,185.6 C2001.21,175.03 2020.7,169.68 2040.19,169.68 C2055.29,169.68 2068.74,171.46 2080.69,174.89 C2092.63,178.46 2103.2,183.26 2112.26,189.58 C2121.45,195.9 2129.28,203.45 2135.59,212.23 C2142.04,220.88 2147.39,230.62 2151.79,241.47 C2163.87,228.29 2175.26,217.18 2186.11,207.98 C2196.95,198.79 2207.39,191.51 2217.41,185.74 C2227.43,180.11 2237.17,176 2246.65,173.53 C2256.26,170.92 2265.73,169.69 2275.34,169.69 C2298.67,169.69 2318.17,173.81 2333.95,181.91 C2349.74,190.14 2362.5,201.12 2372.38,214.72 C2382.13,228.45 2388.99,244.5 2393.24,262.9 C2397.36,281.29 2399.42,300.65 2399.42,321.1 L2399.42,550.05 L2399.37,550.01 Z" id="5" fill="#01E5FE" fill-rule="nonzero"></path>
                <path d="M2828.33,353.17 C2828.33,363.6 2825.72,371.02 2820.51,375.54 C2815.3,379.93 2809.25,382.13 2802.53,382.13 L2564.79,382.13 C2564.79,402.31 2566.85,420.43 2570.83,436.49 C2574.81,452.69 2581.54,466.55 2591.01,478.08 C2600.34,489.61 2612.56,498.39 2627.52,504.57 C2642.62,510.75 2661.01,513.9 2682.7,513.9 C2699.86,513.9 2715.23,512.53 2728.55,509.64 C2742,506.9 2753.67,503.74 2763.41,500.31 C2773.16,496.88 2781.26,493.72 2787.57,490.98 C2793.88,488.1 2798.55,486.73 2801.84,486.73 C2803.76,486.73 2805.41,487.14 2806.92,488.1 C2808.29,489.06 2809.52,490.44 2810.21,492.36 C2811.04,494.14 2811.72,496.75 2812.13,500.04 C2812.54,503.47 2812.68,507.45 2812.68,512.26 C2812.68,515.69 2812.55,518.71 2812.27,521.32 C2811.99,523.79 2811.72,526.13 2811.31,528.04 C2810.9,530.1 2810.21,531.88 2809.25,533.53 C2808.29,535.04 2807.19,536.55 2805.68,538.06 C2804.17,539.57 2799.78,541.9 2792.64,545.2 C2785.37,548.63 2776.03,551.78 2764.51,555.08 C2752.98,558.24 2739.66,561.12 2724.57,563.59 C2709.47,566.19 2693.41,567.43 2676.25,567.43 C2646.47,567.43 2620.52,563.31 2598.15,554.94 C2575.77,546.71 2556.97,534.35 2541.73,518.02 C2526.49,501.54 2514.96,481.09 2507.28,456.39 C2499.46,431.82 2495.61,403.13 2495.61,370.33 C2495.61,339.31 2499.59,311.31 2507.69,286.46 C2515.65,261.75 2527.32,240.61 2542.41,223.32 C2557.51,206.02 2575.9,192.85 2597.32,183.51 C2618.74,174.32 2642.76,169.65 2669.25,169.65 C2697.66,169.65 2721.82,174.18 2741.73,183.38 C2761.77,192.44 2778.1,204.79 2791.01,220.17 C2803.78,235.54 2813.24,253.66 2819.28,274.53 C2825.32,295.25 2828.34,317.49 2828.34,341.1 L2828.34,353.18 L2828.33,353.17 Z M2761.62,333.54 C2762.44,298.67 2754.76,271.22 2738.42,251.32 C2722.09,231.42 2698.06,221.54 2666.08,221.54 C2649.61,221.54 2635.2,224.56 2622.84,230.73 C2610.48,236.91 2600.19,245.14 2591.82,255.44 C2583.45,265.6 2576.99,277.54 2572.47,290.99 C2567.94,304.58 2565.33,318.72 2564.79,333.54 L2761.63,333.54 L2761.62,333.54 Z" id="6" fill="#01E5FE" fill-rule="nonzero"></path>
                <path d="M3239.71,550.01 C3239.71,552.21 3239.3,553.99 3238.34,555.64 C3237.38,557.29 3235.74,558.52 3233.54,559.48 C3231.2,560.44 3228.19,561.12 3224.48,561.68 C3220.64,562.23 3216.1,562.5 3210.75,562.5 C3205.12,562.5 3200.46,562.23 3196.74,561.68 C3192.9,561.13 3189.88,560.44 3187.41,559.48 C3185.08,558.52 3183.3,557.28 3182.2,555.64 C3181.24,553.99 3180.69,552.07 3180.69,550.01 L3180.69,501.83 C3161.61,522.56 3141.84,538.62 3121.39,550.15 C3100.8,561.68 3078.43,567.44 3053.99,567.44 C3027.5,567.44 3004.85,562.23 2986.18,551.93 C2967.37,541.64 2952.14,527.64 2940.47,510.06 C2928.94,492.49 2920.43,471.9 2915.07,448.15 C2909.72,424.41 2906.97,399.43 2906.97,373.21 C2906.97,342.05 2910.26,313.91 2916.99,288.93 C2923.71,263.81 2933.6,242.4 2946.77,224.69 C2959.81,206.98 2976.15,193.39 2995.64,183.92 C3014.99,174.45 3037.37,169.65 3062.9,169.65 C3084.04,169.65 3103.4,174.32 3120.96,183.51 C3138.53,192.85 3155.83,206.44 3172.99,224.42 L3172.99,14.55 C3172.99,12.63 3173.4,10.84 3174.36,9.06 C3175.32,7.28 3177.1,6.04 3179.85,5.08 C3182.45,4.12 3185.89,3.3 3190.01,2.61 C3194.26,1.92 3199.48,1.65 3205.93,1.65 C3212.65,1.65 3218.15,1.92 3222.4,2.61 C3226.66,3.3 3230.09,4.12 3232.42,5.08 C3234.89,6.04 3236.67,7.28 3237.91,9.06 C3239.15,10.85 3239.69,12.63 3239.69,14.55 L3239.69,550.02 L3239.71,550.01 Z M3173,295.11 C3155.15,272.74 3137.86,255.71 3121.11,244.04 C3104.36,232.38 3086.93,226.47 3068.81,226.47 C3051.93,226.47 3037.65,230.45 3025.85,238.55 C3014.05,246.65 3004.57,257.22 2997.16,270.4 C2989.88,283.44 2984.53,298.4 2981.24,315.01 C2977.81,331.62 2976.16,348.5 2976.16,365.66 C2976.16,383.91 2977.53,401.76 2980.42,419.19 C2983.16,436.62 2988.1,452.14 2994.97,465.72 C3001.97,479.31 3011.17,490.15 3022.7,498.39 C3034.1,506.49 3048.64,510.61 3065.94,510.61 C3074.72,510.61 3083.23,509.37 3091.47,507.04 C3099.57,504.57 3107.94,500.59 3116.45,494.96 C3124.96,489.34 3134.02,482.06 3143.35,473 C3152.68,464.07 3162.56,453.1 3173,439.92 L3173,295.11 L3173,295.11 Z" id="7" fill="#01E5FE" fill-rule="nonzero"></path>
                <path d="M285.78,494.28 C285.78,498.81 285.65,502.79 285.37,506.08 C285.1,509.51 284.69,512.26 284,514.59 C283.31,516.92 282.49,518.84 281.53,520.63 C280.57,522.42 278.51,525.02 275.08,528.32 C271.79,531.75 266.02,535.87 258.06,540.95 C249.96,545.89 240.9,550.42 230.88,554.26 C220.72,558.24 209.88,561.4 198.07,563.73 C186.27,566.2 174.05,567.44 161.42,567.44 C135.34,567.44 112.28,563.19 92.24,554.54 C72.06,546.03 55.18,533.54 41.73,517.07 C28.14,500.59 17.85,480.28 10.71,456.4 C3.57,432.38 4.54747351e-13,404.79 4.54747351e-13,373.35 C4.54747351e-13,337.8 4.39,307.19 13.04,281.52 C21.83,255.99 33.77,234.99 48.86,218.66 C64.1,202.32 81.94,190.25 102.4,182.28 C122.99,174.46 145.23,170.48 169.11,170.48 C180.64,170.48 191.76,171.58 202.6,173.78 C213.58,175.84 223.46,178.72 232.66,182.15 C241.72,185.72 249.96,189.7 256.96,194.37 C264.1,198.9 269.31,202.88 272.47,206.03 C275.76,209.33 277.96,211.93 279.19,213.72 C280.29,215.64 281.39,217.84 282.21,220.44 C282.89,222.91 283.45,225.79 283.72,229.09 C283.99,232.25 284.13,236.37 284.13,241.17 C284.13,251.6 282.89,258.88 280.56,263.13 C278.09,267.25 275.21,269.31 271.63,269.31 C267.65,269.31 262.98,267.11 257.77,262.58 C252.56,258.19 245.97,253.25 237.87,247.89 C229.77,242.54 220.02,237.6 208.63,233.2 C197.24,228.67 183.79,226.48 168.28,226.48 C136.3,226.48 111.73,238.7 94.7,263.27 C77.68,287.7 69.17,323.26 69.17,369.79 C69.17,392.98 71.37,413.44 75.76,431.01 C80.29,448.45 86.74,463.13 95.39,474.94 C103.9,486.6 114.47,495.39 126.96,501.16 C139.45,506.92 153.73,509.81 169.79,509.81 C185.16,509.81 198.61,507.34 210.15,502.53 C221.68,497.73 231.56,492.37 240.07,486.47 C248.58,480.7 255.71,475.49 261.48,470.82 C267.25,466.01 271.64,463.68 274.93,463.68 C276.71,463.68 278.36,464.23 279.74,465.32 C281.11,466.42 282.21,468.2 283.17,470.67 C284.13,473.28 284.81,476.44 285.23,480.42 C285.64,484.26 285.78,488.93 285.78,494.29 L285.78,494.28 Z" id="8" stroke="#FEFEFE" stroke-width="29.88"></path>
                <path d="M440.48,550.01 C440.48,552.21 439.93,553.99 438.84,555.5 C437.74,556.87 436.09,558.24 433.62,559.34 C431.15,560.3 427.86,561.12 423.46,561.68 C419.2,562.23 413.71,562.5 406.99,562.5 C400.4,562.5 395.05,562.23 390.79,561.68 C386.4,561.13 382.97,560.31 380.5,559.34 C377.89,558.24 376.11,556.87 375.15,555.5 C374.19,553.99 373.78,552.2 373.78,550.01 L373.78,12.9 C373.78,10.7 374.19,8.78 375.15,7.27 C376.11,5.62 377.89,4.25 380.5,3.15 C382.97,2.19 386.4,1.37 390.79,0.82 C395.04,0.27 400.4,0 406.99,0 C413.71,0 419.2,0.27 423.46,0.82 C427.85,1.37 431.14,2.19 433.62,3.15 C436.09,4.25 437.74,5.62 438.84,7.27 C439.94,8.78 440.48,10.7 440.48,12.9 L440.48,550.01 Z" id="9" stroke="#FEFEFE" stroke-width="29.88"></path>
                <path d="M898.8,364.7 C898.8,394.21 894.96,421.39 887.14,446.24 C879.45,470.94 867.79,492.36 852.41,510.34 C837.04,528.32 817.68,542.32 794.62,552.35 C771.43,562.37 744.52,567.45 714.05,567.45 C684.27,567.45 658.32,563.06 636.22,554.14 C614.12,545.35 595.73,532.45 581.04,515.57 C566.35,498.69 555.37,478.1 548.09,454.08 C540.81,429.92 537.25,402.6 537.25,372 C537.25,342.49 541.09,315.31 548.64,290.6 C556.33,265.76 567.86,244.35 583.23,226.36 C598.6,208.38 617.82,194.51 640.88,184.49 C663.94,174.61 690.84,169.67 721.59,169.67 C751.38,169.67 777.32,174.06 799.42,182.98 C821.52,191.77 839.91,204.67 854.6,221.55 C869.29,238.43 880.4,258.88 887.82,283.04 C895.09,307.2 898.8,334.37 898.8,364.71 L898.8,364.7 Z M829.62,368.95 C829.62,349.32 827.84,330.79 824.13,313.36 C820.56,295.93 814.52,280.69 806.15,267.51 C797.92,254.34 786.52,243.9 772.25,236.35 C758.11,228.67 740.27,224.82 718.99,224.82 C699.36,224.82 682.48,228.25 668.34,235.25 C654.2,242.25 642.67,252.13 633.48,264.9 C624.28,277.67 617.56,292.76 613.16,310.19 C608.63,327.63 606.43,346.7 606.43,367.3 C606.43,387.2 608.21,405.87 611.92,423.3 C615.49,440.73 621.53,455.97 630.04,469.01 C638.55,481.91 649.94,492.34 664.08,499.89 C678.36,507.57 696.2,511.42 717.48,511.42 C736.83,511.42 753.58,507.99 767.86,500.99 C782.13,493.99 793.8,484.25 803,471.61 C812.2,458.98 818.92,443.88 823.18,426.45 C827.43,409.02 829.63,389.8 829.63,368.93 L829.62,368.95 Z" id="10" stroke="#FEFEFE" stroke-width="29.88"></path>
                <path d="M1306.75,550.01 C1306.75,552.21 1306.34,553.99 1305.38,555.5 C1304.42,556.87 1302.78,558.24 1300.3,559.34 C1297.97,560.3 1294.81,561.12 1290.83,561.68 C1286.99,562.23 1282.18,562.5 1276.56,562.5 C1270.52,562.5 1265.44,562.23 1261.6,561.68 C1257.62,561.13 1254.6,560.31 1252.26,559.34 C1250.06,558.24 1248.42,556.87 1247.73,555.5 C1246.91,553.99 1246.49,552.2 1246.49,550.01 L1246.49,502.11 C1225.76,524.9 1205.45,541.37 1185.27,551.8 C1165.23,562.23 1144.78,567.45 1124.19,567.45 C1100.03,567.45 1079.71,563.47 1063.24,555.37 C1046.77,547.41 1033.32,536.43 1023.16,522.56 C1013,508.83 1005.72,492.78 1001.2,474.38 C996.81,455.99 994.61,433.61 994.61,407.4 L994.61,187.91 C994.61,185.71 995.02,183.93 995.98,182.42 C996.94,181.05 998.72,179.68 1001.47,178.44 C1004.08,177.2 1007.65,176.38 1011.9,175.97 C1016.15,175.56 1021.51,175.42 1027.96,175.42 C1034.41,175.42 1039.76,175.56 1044.02,175.97 C1048.27,176.38 1051.7,177.21 1054.31,178.44 C1056.78,179.68 1058.56,181.04 1059.66,182.42 C1060.76,183.93 1061.3,185.71 1061.3,187.91 L1061.3,398.75 C1061.3,419.89 1062.81,436.91 1065.97,449.68 C1068.99,462.45 1073.66,473.29 1079.97,482.21 C1086.29,491.27 1094.38,498.27 1103.99,503.21 C1113.6,508.15 1124.86,510.62 1137.76,510.62 C1154.37,510.62 1170.98,504.72 1187.45,492.91 C1204.06,481.11 1221.49,463.81 1240.02,441.02 L1240.02,187.9 C1240.02,185.7 1240.43,183.92 1241.39,182.41 C1242.35,181.04 1244.13,179.67 1246.88,178.43 C1249.48,177.19 1252.92,176.37 1257.04,175.96 C1261.29,175.55 1266.65,175.41 1273.38,175.41 C1279.83,175.41 1285.18,175.55 1289.44,175.96 C1293.7,176.37 1297.13,177.2 1299.46,178.43 C1301.93,179.67 1303.71,181.03 1304.95,182.41 C1306.19,183.92 1306.73,185.7 1306.73,187.9 L1306.73,550 L1306.75,550.01 Z" id="11" stroke="#FEFEFE" stroke-width="29.88"></path>
                <path d="M1739.41,550.01 C1739.41,552.21 1739,553.99 1738.04,555.64 C1737.08,557.29 1735.44,558.52 1733.24,559.48 C1730.9,560.44 1727.89,561.12 1724.18,561.68 C1720.34,562.23 1715.8,562.5 1710.45,562.5 C1704.82,562.5 1700.16,562.23 1696.44,561.68 C1692.6,561.13 1689.58,560.44 1687.11,559.48 C1684.78,558.52 1683,557.28 1681.9,555.64 C1680.94,553.99 1680.39,552.07 1680.39,550.01 L1680.39,501.83 C1661.31,522.56 1641.54,538.62 1621.09,550.15 C1600.5,561.68 1578.13,567.44 1553.69,567.44 C1527.2,567.44 1504.55,562.23 1485.88,551.93 C1467.07,541.64 1451.84,527.64 1440.17,510.06 C1428.64,492.49 1420.13,471.9 1414.77,448.15 C1409.42,424.41 1406.67,399.43 1406.67,373.21 C1406.67,342.05 1409.96,313.91 1416.69,288.93 C1423.41,263.81 1433.3,242.4 1446.47,224.69 C1459.51,206.98 1475.85,193.39 1495.34,183.92 C1514.69,174.45 1537.07,169.65 1562.6,169.65 C1583.74,169.65 1603.1,174.32 1620.66,183.51 C1638.23,192.85 1655.53,206.44 1672.69,224.42 L1672.69,14.55 C1672.69,12.63 1673.1,10.84 1674.06,9.06 C1675.02,7.28 1676.8,6.04 1679.55,5.08 C1682.15,4.12 1685.59,3.3 1689.71,2.61 C1693.96,1.92 1699.18,1.65 1705.63,1.65 C1712.35,1.65 1717.85,1.92 1722.1,2.61 C1726.36,3.3 1729.79,4.12 1732.12,5.08 C1734.59,6.04 1736.37,7.28 1737.61,9.06 C1738.85,10.85 1739.39,12.63 1739.39,14.55 L1739.39,550.02 L1739.41,550.01 Z M1672.7,295.11 C1654.85,272.74 1637.56,255.71 1620.81,244.04 C1604.06,232.38 1586.63,226.47 1568.51,226.47 C1551.63,226.47 1537.35,230.45 1525.55,238.55 C1513.75,246.65 1504.27,257.22 1496.86,270.4 C1489.58,283.44 1484.23,298.4 1480.94,315.01 C1477.51,331.62 1475.86,348.5 1475.86,365.66 C1475.86,383.91 1477.23,401.76 1480.12,419.19 C1482.86,436.62 1487.8,452.14 1494.67,465.72 C1501.67,479.31 1510.87,490.15 1522.4,498.39 C1533.8,506.49 1548.34,510.61 1565.64,510.61 C1574.42,510.61 1582.93,509.37 1591.17,507.04 C1599.27,504.57 1607.64,500.59 1616.15,494.96 C1624.66,489.34 1633.72,482.06 1643.05,473 C1652.38,464.07 1662.26,453.1 1672.7,439.92 L1672.7,295.11 L1672.7,295.11 Z" id="12" stroke="#FEFEFE" stroke-width="29.88"></path>
                <path d="M2399.37,550.01 C2399.37,552.21 2398.82,553.99 2397.73,555.5 C2396.63,556.87 2394.99,558.24 2392.51,559.34 C2390.18,560.3 2386.75,561.12 2382.49,561.68 C2378.23,562.23 2372.88,562.5 2366.43,562.5 C2359.71,562.5 2354.21,562.23 2349.96,561.68 C2345.7,561.13 2342.27,560.31 2339.67,559.34 C2337.2,558.24 2335.41,556.87 2334.32,555.5 C2333.22,553.99 2332.67,552.2 2332.67,550.01 L2332.67,329.98 C2332.67,314.61 2331.3,300.6 2328.69,288.11 C2325.95,275.48 2321.69,264.64 2315.79,255.44 C2309.89,246.38 2302.48,239.38 2293.42,234.58 C2284.36,229.77 2273.65,227.3 2261.3,227.3 C2246.06,227.3 2230.69,233.2 2215.45,245.01 C2200.08,256.82 2183.06,274.11 2164.66,296.9 L2164.66,550.02 C2164.66,552.22 2164.11,554 2163.01,555.51 C2161.91,556.88 2160.13,558.25 2157.52,559.35 C2155.05,560.31 2151.62,561.13 2147.23,561.69 C2142.98,562.24 2137.62,562.51 2131.17,562.51 C2124.85,562.51 2119.64,562.24 2115.11,561.69 C2110.72,561.14 2107.15,560.32 2104.68,559.35 C2102.07,558.25 2100.29,556.88 2099.33,555.51 C2098.37,554 2097.96,552.21 2097.96,550.02 L2097.96,329.99 C2097.96,314.62 2096.45,300.61 2093.57,288.12 C2090.55,275.49 2086.16,264.65 2080.26,255.45 C2074.36,246.39 2066.95,239.39 2058.02,234.59 C2048.96,229.78 2038.39,227.31 2026.04,227.31 C2010.8,227.31 1995.29,233.21 1979.78,245.02 C1964.27,256.83 1947.39,274.12 1929.13,296.91 L1929.13,550.03 C1929.13,552.23 1928.58,554.01 1927.49,555.52 C1926.39,556.89 1924.74,558.26 1922.27,559.36 C1919.8,560.32 1916.51,561.14 1912.11,561.7 C1907.85,562.25 1902.36,562.52 1895.64,562.52 C1889.05,562.52 1883.7,562.25 1879.44,561.7 C1875.05,561.15 1871.62,560.33 1869.15,559.36 C1866.54,558.26 1864.76,556.89 1863.8,555.52 C1862.84,554.01 1862.43,552.22 1862.43,550.03 L1862.43,187.93 C1862.43,185.73 1862.84,183.95 1863.67,182.44 C1864.49,181.07 1866.01,179.7 1868.48,178.46 C1870.95,177.22 1873.97,176.4 1877.81,175.99 C1881.52,175.58 1886.6,175.44 1892.77,175.44 C1898.67,175.44 1903.61,175.58 1907.46,175.99 C1911.44,176.4 1914.46,177.23 1916.65,178.46 C1918.71,179.7 1920.36,181.06 1921.32,182.44 C1922.15,183.95 1922.69,185.73 1922.69,187.93 L1922.69,235.84 C1943.01,212.91 1962.91,196.17 1982.13,185.6 C2001.21,175.03 2020.7,169.68 2040.19,169.68 C2055.29,169.68 2068.74,171.46 2080.69,174.89 C2092.63,178.46 2103.2,183.26 2112.26,189.58 C2121.45,195.9 2129.28,203.45 2135.59,212.23 C2142.04,220.88 2147.39,230.62 2151.79,241.47 C2163.87,228.29 2175.26,217.18 2186.11,207.98 C2196.95,198.79 2207.39,191.51 2217.41,185.74 C2227.43,180.11 2237.17,176 2246.65,173.53 C2256.26,170.92 2265.73,169.69 2275.34,169.69 C2298.67,169.69 2318.17,173.81 2333.95,181.91 C2349.74,190.14 2362.5,201.12 2372.38,214.72 C2382.13,228.45 2388.99,244.5 2393.24,262.9 C2397.36,281.29 2399.42,300.65 2399.42,321.1 L2399.42,550.05 L2399.37,550.01 Z" id="13" stroke="#01E5FE" stroke-width="29.88"></path>
                <path d="M2828.33,353.17 C2828.33,363.6 2825.72,371.02 2820.51,375.54 C2815.3,379.93 2809.25,382.13 2802.53,382.13 L2564.79,382.13 C2564.79,402.31 2566.85,420.43 2570.83,436.49 C2574.81,452.69 2581.54,466.55 2591.01,478.08 C2600.34,489.61 2612.56,498.39 2627.52,504.57 C2642.62,510.75 2661.01,513.9 2682.7,513.9 C2699.86,513.9 2715.23,512.53 2728.55,509.64 C2742,506.9 2753.67,503.74 2763.41,500.31 C2773.16,496.88 2781.26,493.72 2787.57,490.98 C2793.88,488.1 2798.55,486.73 2801.84,486.73 C2803.76,486.73 2805.41,487.14 2806.92,488.1 C2808.29,489.06 2809.52,490.44 2810.21,492.36 C2811.04,494.14 2811.72,496.75 2812.13,500.04 C2812.54,503.47 2812.68,507.45 2812.68,512.26 C2812.68,515.69 2812.55,518.71 2812.27,521.32 C2811.99,523.79 2811.72,526.13 2811.31,528.04 C2810.9,530.1 2810.21,531.88 2809.25,533.53 C2808.29,535.04 2807.19,536.55 2805.68,538.06 C2804.17,539.57 2799.78,541.9 2792.64,545.2 C2785.37,548.63 2776.03,551.78 2764.51,555.08 C2752.98,558.24 2739.66,561.12 2724.57,563.59 C2709.47,566.19 2693.41,567.43 2676.25,567.43 C2646.47,567.43 2620.52,563.31 2598.15,554.94 C2575.77,546.71 2556.97,534.35 2541.73,518.02 C2526.49,501.54 2514.96,481.09 2507.28,456.39 C2499.46,431.82 2495.61,403.13 2495.61,370.33 C2495.61,339.31 2499.59,311.31 2507.69,286.46 C2515.65,261.75 2527.32,240.61 2542.41,223.32 C2557.51,206.02 2575.9,192.85 2597.32,183.51 C2618.74,174.32 2642.76,169.65 2669.25,169.65 C2697.66,169.65 2721.82,174.18 2741.73,183.38 C2761.77,192.44 2778.1,204.79 2791.01,220.17 C2803.78,235.54 2813.24,253.66 2819.28,274.53 C2825.32,295.25 2828.34,317.49 2828.34,341.1 L2828.34,353.18 L2828.33,353.17 Z M2761.62,333.54 C2762.44,298.67 2754.76,271.22 2738.42,251.32 C2722.09,231.42 2698.06,221.54 2666.08,221.54 C2649.61,221.54 2635.2,224.56 2622.84,230.73 C2610.48,236.91 2600.19,245.14 2591.82,255.44 C2583.45,265.6 2576.99,277.54 2572.47,290.99 C2567.94,304.58 2565.33,318.72 2564.79,333.54 L2761.63,333.54 L2761.62,333.54 Z" id="14" stroke="#01E5FE" stroke-width="29.88"></path>
                <path d="M3239.71,550.01 C3239.71,552.21 3239.3,553.99 3238.34,555.64 C3237.38,557.29 3235.74,558.52 3233.54,559.48 C3231.2,560.44 3228.19,561.12 3224.48,561.68 C3220.64,562.23 3216.1,562.5 3210.75,562.5 C3205.12,562.5 3200.46,562.23 3196.74,561.68 C3192.9,561.13 3189.88,560.44 3187.41,559.48 C3185.08,558.52 3183.3,557.28 3182.2,555.64 C3181.24,553.99 3180.69,552.07 3180.69,550.01 L3180.69,501.83 C3161.61,522.56 3141.84,538.62 3121.39,550.15 C3100.8,561.68 3078.43,567.44 3053.99,567.44 C3027.5,567.44 3004.85,562.23 2986.18,551.93 C2967.37,541.64 2952.14,527.64 2940.47,510.06 C2928.94,492.49 2920.43,471.9 2915.07,448.15 C2909.72,424.41 2906.97,399.43 2906.97,373.21 C2906.97,342.05 2910.26,313.91 2916.99,288.93 C2923.71,263.81 2933.6,242.4 2946.77,224.69 C2959.81,206.98 2976.15,193.39 2995.64,183.92 C3014.99,174.45 3037.37,169.65 3062.9,169.65 C3084.04,169.65 3103.4,174.32 3120.96,183.51 C3138.53,192.85 3155.83,206.44 3172.99,224.42 L3172.99,14.55 C3172.99,12.63 3173.4,10.84 3174.36,9.06 C3175.32,7.28 3177.1,6.04 3179.85,5.08 C3182.45,4.12 3185.89,3.3 3190.01,2.61 C3194.26,1.92 3199.48,1.65 3205.93,1.65 C3212.65,1.65 3218.15,1.92 3222.4,2.61 C3226.66,3.3 3230.09,4.12 3232.42,5.08 C3234.89,6.04 3236.67,7.28 3237.91,9.06 C3239.15,10.85 3239.69,12.63 3239.69,14.55 L3239.69,550.02 L3239.71,550.01 Z M3173,295.11 C3155.15,272.74 3137.86,255.71 3121.11,244.04 C3104.36,232.38 3086.93,226.47 3068.81,226.47 C3051.93,226.47 3037.65,230.45 3025.85,238.55 C3014.05,246.65 3004.57,257.22 2997.16,270.4 C2989.88,283.44 2984.53,298.4 2981.24,315.01 C2977.81,331.62 2976.16,348.5 2976.16,365.66 C2976.16,383.91 2977.53,401.76 2980.42,419.19 C2983.16,436.62 2988.1,452.14 2994.97,465.72 C3001.97,479.31 3011.17,490.15 3022.7,498.39 C3034.1,506.49 3048.64,510.61 3065.94,510.61 C3074.72,510.61 3083.23,509.37 3091.47,507.04 C3099.57,504.57 3107.94,500.59 3116.45,494.96 C3124.96,489.34 3134.02,482.06 3143.35,473 C3152.68,464.07 3162.56,453.1 3173,439.92 L3173,295.11 L3173,295.11 Z" id="15" stroke="#01E5FE" stroke-width="29.88"></path>
            </g>
            <text id="CLINIC" font-family="Helvetica-Oblique, Helvetica" font-size="296" font-style="italic" font-weight="normal" letter-spacing="0.589054726" fill="#FFFFFF">
                <tspan x="4155.0874" y="922.018093">CLINIC</tspan>
            </text>
        </g>
    </g>
</svg>