<?xml version="1.0" encoding="UTF-8"?>
<svg width="1822px" height="957px" viewBox="0 0 1822 957" version="1.1" xmlns="http://www.w3.org/2000/svg" xmlns:xlink="http://www.w3.org/1999/xlink">
    <title>logo</title>
    <g id="Page-1" stroke="none" stroke-width="1" fill="none" fill-rule="evenodd">
        <g id="logo" transform="translate(-0.004544, 0.981907)">
            <path d="M952.604544,218.718093 C958.444544,234.228093 970.134544,213.738093 919.734544,261.168093 L601.064544,578.798093 C573.384544,605.768093 250.564544,916.158093 240.594544,947.078093 C289.264544,962.498093 828.194544,952.078093 928.734544,951.988093 C1156.88454,951.808093 1389.71454,947.868093 1615.47454,948.418093 L935.804544,949.878093 C948.814544,917.898093 1053.76454,823.228093 1083.09454,793.978093 C1142.65454,734.628093 1179.50454,697.648093 1235.78454,641.048093 C1264.20454,612.468093 1280.84454,598.108093 1310.80454,566.868093 C1333.37454,543.328093 1361.65454,513.178093 1389.60454,489.858093 C1483.60454,411.418093 1556.48454,436.248093 1627.43454,433.638093 C1645.70454,311.038093 1657.79454,263.538093 1598.16454,159.808093 C1506.89454,1.07809264 1288.30454,-49.7419074 1135.23454,54.5080926 C1077.92454,93.5380926 992.724544,205.368093 952.584544,218.698093 L952.604544,218.718093 Z" id="Path" fill="#01ACFE"></path>
            <path d="M1615.48454,948.428093 C1876.73454,871.788093 1871.79454,577.308093 1702.81454,470.958093 C1682.19454,457.978093 1642.56454,446.358093 1627.44454,433.668093 C1556.48454,436.268093 1483.60454,411.438093 1389.61454,489.888093 C1361.65454,513.208093 1333.38454,543.358093 1310.81454,566.898093 C1280.86454,598.138093 1264.21454,612.498093 1235.79454,641.078093 C1179.51454,697.668093 1142.66454,734.658093 1083.10454,794.008093 C1053.76454,823.248093 948.824544,917.928093 935.814544,949.908093 L1615.48454,948.448093 L1615.48454,948.428093 Z" id="Path" fill="#01E5FF"></path>
            <path d="M394.334544,393.688093 L405.544544,404.778093 C378.204544,420.538093 166.834544,636.698093 120.884544,683.508093 C103.944544,700.758093 45.3845438,763.758093 25.2945438,774.418093 C54.2945438,851.698093 137.624544,935.308093 240.604544,947.088093 C250.574544,916.168093 573.384544,605.778093 601.074544,578.808093 L919.744544,261.178093 C970.144544,213.748093 958.444544,234.238093 952.614544,218.728093 C868.954544,144.028093 749.344544,111.848093 629.024544,184.838093 C550.084544,232.728093 439.624544,389.958093 394.344544,393.688093 L394.334544,393.688093 Z" id="Path" fill="#055DDE"></path>
            <path d="M25.2945438,774.418093 C45.3845438,763.758093 103.944544,700.758093 120.884544,683.508093 C166.844544,636.688093 378.204544,420.538093 405.544544,404.778093 L394.334544,393.688093 C151.234544,308.178093 -77.6354562,550.048093 25.2845438,774.428093 L25.2945438,774.418093 Z" id="Path" fill="#01258D"></path>
        </g>
    </g>
</svg>