<?xml version="1.0" standalone="no"?>
<!DOCTYPE svg PUBLIC "-//W3C//DTD SVG 20010904//EN"
 "http://www.w3.org/TR/2001/REC-SVG-20010904/DTD/svg10.dtd">
<svg version="1.0" xmlns="http://www.w3.org/2000/svg"
 width="707.000000pt" height="707.000000pt" viewBox="0 0 707.000000 707.000000"
 preserveAspectRatio="xMidYMid meet">
<metadata>
Created by potrace 1.14, written by Peter Selinger 2001-2017
</metadata>
<g transform="translate(0.000000,707.000000) scale(0.100000,-0.100000)"
fill="#000000" stroke="none">
<path d="M3447 6264 c-1 -1 -45 -4 -97 -8 -147 -10 -187 -16 -305 -46 -189
-48 -400 -142 -563 -251 -88 -59 -81 -54 -157 -121 -241 -214 -370 -377 -482
-607 -54 -113 -115 -281 -127 -353 l-7 -36 233 -5 c128 -3 256 -8 285 -12 l51
-6 82 165 c93 190 117 220 320 412 116 108 236 180 383 228 293 96 600 92 904
-10 61 -21 188 -83 211 -104 9 -8 60 -48 114 -88 97 -74 109 -85 209 -202 70
-82 118 -150 156 -220 75 -138 136 -409 136 -605 0 -98 -4 -127 -43 -270 -23
-88 -44 -176 -47 -195 -2 -19 -6 -40 -8 -47 -4 -13 20 -7 41 9 6 4 51 17 100
28 217 47 555 -1 794 -113 73 -35 335 -228 393 -291 55 -59 119 -143 156 -202
75 -122 159 -376 176 -531 32 -285 -26 -562 -168 -798 -43 -71 -157 -211 -223
-275 -144 -138 -247 -203 -416 -264 -54 -20 -98 -34 -98 -32 0 2 -21 -2 -46
-10 -26 -8 -67 -17 -93 -20 -25 -3 -66 -10 -90 -14 -50 -9 -283 -6 -351 5
-315 49 -572 202 -810 481 -87 102 -199 327 -224 450 -3 10 -9 39 -14 64 -20
89 -30 172 -37 310 -6 130 -16 253 -21 261 -2 4 -6 24 -10 45 -45 292 -184
590 -385 825 -134 157 -364 369 -399 369 -6 0 -10 5 -10 10 0 6 -4 10 -9 10
-4 0 -46 22 -92 48 -258 148 -549 230 -839 237 -213 5 -354 -17 -575 -91 -130
-43 -379 -169 -450 -226 -5 -4 -37 -28 -71 -52 -184 -132 -410 -381 -525 -577
-104 -178 -190 -397 -223 -566 -9 -43 -19 -91 -22 -108 -14 -66 -13 -390 2
-490 37 -259 154 -574 281 -761 21 -31 43 -63 48 -72 29 -47 122 -157 196
-232 178 -180 344 -295 563 -389 149 -63 289 -101 481 -127 68 -10 244 -11
335 -2 145 13 181 19 293 48 271 69 488 169 675 311 46 35 99 75 118 89 18 14
33 27 33 30 0 3 -87 95 -194 204 l-194 200 -113 -76 c-126 -86 -221 -135 -318
-166 -316 -102 -642 -87 -975 44 -38 15 -77 33 -86 41 -8 7 -19 13 -24 13 -13
0 -82 47 -140 96 -163 135 -297 312 -373 491 -34 81 -45 107 -47 118 -2 6 -12
42 -23 80 -33 110 -48 230 -46 360 2 173 13 235 70 413 36 110 137 290 208
370 131 146 231 225 408 326 27 15 48 24 48 20 0 -3 6 -1 13 5 13 10 137 60
167 66 8 2 42 10 74 19 90 24 167 31 326 30 95 0 172 -6 225 -17 44 -10 89
-19 100 -21 79 -17 279 -108 359 -164 79 -54 96 -69 166 -136 156 -150 256
-299 326 -483 25 -68 61 -249 69 -353 14 -174 26 -309 30 -325 1 -5 5 -32 9
-60 21 -138 101 -394 165 -530 58 -122 111 -206 225 -355 11 -14 77 -82 147
-151 303 -298 682 -484 1074 -526 88 -9 309 -9 395 0 205 22 425 83 610 170
101 47 283 153 288 168 2 5 8 9 13 9 10 0 21 8 58 40 9 8 35 28 56 45 86 64
272 262 334 355 20 30 39 56 44 58 4 2 7 7 7 12 0 4 18 38 40 74 22 36 40 70
40 76 0 6 4 18 10 28 18 31 109 282 124 340 45 173 66 527 43 692 -48 329
-178 658 -341 865 -13 16 -43 54 -66 84 -67 84 -178 197 -249 254 -36 28 -68
54 -71 58 -9 10 -124 85 -175 114 -137 76 -177 96 -265 128 -97 36 -209 69
-314 93 -32 7 -62 18 -66 24 -4 6 -8 35 -9 64 -1 28 -3 61 -5 72 -2 10 -7 42
-10 69 -17 129 -78 334 -137 463 -22 46 -39 86 -39 88 0 3 -11 21 -23 42 -13
20 -43 69 -67 107 -73 116 -138 193 -290 343 -166 164 -257 229 -450 325 -230
112 -434 170 -680 193 -50 5 -209 11 -213 8z"/>
</g>
</svg>
